<svg width="175" height="19" xmlns="http://www.w3.org/2000/svg" style="vector-effect: non-scaling-stroke;" stroke="null" fill="none">

 <g stroke="null">
  <title stroke="null">Layer 1</title>
  <path stroke="null" id="svg_1" fill="#222222" d="m-28.64533,106.35999c0.976,0.208 1.76,0.696 2.352,1.464c0.592,0.752 0.888,1.616 0.888,2.592c0,1.408 -0.496,2.528 -1.488,3.36c-0.976,0.816 -2.344,1.224 -4.104,1.224l-7.848,0l0,-16.848l7.584,0c1.712,0 3.048,0.392 4.008,1.176c0.976,0.784 1.464,1.848 1.464,3.192c0,0.992 -0.264,1.816 -0.792,2.472c-0.512,0.656 -1.2,1.112 -2.064,1.368zm-6.096,-1.392l2.688,0c0.672,0 1.184,-0.144 1.536,-0.432c0.368,-0.304 0.552,-0.744 0.552,-1.32c0,-0.576 -0.184,-1.016 -0.552,-1.32c-0.352,-0.304 -0.864,-0.456 -1.536,-0.456l-2.688,0l0,3.528zm3.024,6.72c0.688,0 1.216,-0.152 1.584,-0.456c0.384,-0.32 0.576,-0.776 0.576,-1.368c0,-0.592 -0.2,-1.056 -0.6,-1.392c-0.384,-0.336 -0.92,-0.504 -1.608,-0.504l-2.976,0l0,3.72l3.024,0zm12.6763,-3.408c0,-1.376 0.256,-2.584 0.768,-3.624c0.528,-1.04 1.24,-1.84 2.136,-2.4c0.896,-0.56 1.896,-0.84 3,-0.84c0.944,0 1.768,0.192 2.472,0.576c0.72,0.384 1.272,0.888 1.656,1.512l0,-1.896l4.104,0l0,13.392l-4.104,0l0,-1.896c-0.4,0.624 -0.96,1.128 -1.68,1.512c-0.704,0.384 -1.528,0.576 -2.472,0.576c-1.088,0 -2.08,-0.28 -2.976,-0.84c-0.896,-0.576 -1.608,-1.384 -2.136,-2.424c-0.512,-1.056 -0.768,-2.272 -0.768,-3.648zm10.032,0.024c0,-1.024 -0.288,-1.832 -0.864,-2.424c-0.56,-0.592 -1.248,-0.888 -2.064,-0.888c-0.816,0 -1.512,0.296 -2.088,0.888c-0.56,0.576 -0.84,1.376 -0.84,2.4c0,1.024 0.28,1.84 0.84,2.448c0.576,0.592 1.272,0.888 2.088,0.888c0.816,0 1.504,-0.296 2.064,-0.888c0.576,-0.592 0.864,-1.4 0.864,-2.424zm11.0571,0c0,-1.392 0.28,-2.608 0.84,-3.648c0.576,-1.04 1.368,-1.84 2.376,-2.4c1.024,-0.56 2.192,-0.84 3.504,-0.84c1.68,0 3.08,0.44 4.2,1.32c1.136,0.88 1.88,2.12 2.232,3.72l-4.368,0c-0.368,-1.024 -1.08,-1.536 -2.136,-1.536c-0.752,0 -1.352,0.296 -1.8,0.888c-0.448,0.576 -0.672,1.408 -0.672,2.496c0,1.088 0.224,1.928 0.672,2.52c0.448,0.576 1.048,0.864 1.8,0.864c1.056,0 1.768,-0.512 2.136,-1.536l4.368,0c-0.352,1.568 -1.096,2.8 -2.232,3.696c-1.136,0.896 -2.536,1.344 -4.2,1.344c-1.312,0 -2.48,-0.28 -3.504,-0.84c-1.008,-0.56 -1.8,-1.36 -2.376,-2.4c-0.56,-1.04 -0.84,-2.256 -0.84,-3.648zm28.3312,6.696c-1.36,-1.872 -2.72,-3.744 -4.08,-5.616l0,5.616l-4.104,0l0,-17.76l4.104,0c0,3.272 0,6.544 0,9.816l4.056,-5.448l5.064,0l-5.568,6.72l5.616,6.672l-5.088,0z"/>
  <path style="vector-effect: non-scaling-stroke;" stroke="null" id="svg_2" fill="#3FD0D4" d="m89.7566,18l-3.504,-6.36l-0.984,0l0,6.36l-4.104,0l0,-16.848l6.888,0c1.328,0 2.456,0.232 3.384,0.696c0.944,0.464 1.648,1.104 2.112,1.92c0.464,0.8 0.696,1.696 0.696,2.688c0,1.12 -0.32,2.12 -0.96,3c-0.624,0.88 -1.552,1.504 -2.784,1.872l3.888,6.672l-4.632,0zm-4.488,-9.264l2.544,0c0.752,0 1.312,-0.184 1.68,-0.552c0.384,-0.368 0.576,-0.888 0.576,-1.56c0,-0.64 -0.192,-1.144 -0.576,-1.512c-0.368,-0.368 -0.928,-0.552 -1.68,-0.552l-2.544,0l0,4.176zm22.4484,9.456c-1.312,0 -2.496,-0.28 -3.552,-0.84c-1.04,-0.56 -1.864,-1.36 -2.472,-2.4c-0.592,-1.04 -0.888,-2.256 -0.888,-3.648c0,-1.376 0.304,-2.584 0.912,-3.624c0.608,-1.056 1.44,-1.864 2.496,-2.424c1.056,-0.56 2.24,-0.84 3.552,-0.84c1.312,0 2.496,0.28 3.552,0.84c1.056,0.56 1.888,1.368 2.496,2.424c0.608,1.04 0.912,2.248 0.912,3.624c0,1.376 -0.312,2.592 -0.936,3.648c-0.608,1.04 -1.448,1.84 -2.52,2.4c-1.056,0.56 -2.24,0.84 -3.552,0.84zm0,-3.552c0.784,0 1.448,-0.288 1.992,-0.864c0.56,-0.576 0.84,-1.4 0.84,-2.472c0,-1.072 -0.272,-1.896 -0.816,-2.472c-0.528,-0.576 -1.184,-0.864 -1.968,-0.864c-0.8,0 -1.464,0.288 -1.992,0.864c-0.528,0.56 -0.792,1.384 -0.792,2.472c0,1.072 0.256,1.896 0.768,2.472c0.528,0.576 1.184,0.864 1.968,0.864zm13.169,-3.36c0,-1.376 0.256,-2.584 0.768,-3.624c0.528,-1.04 1.24,-1.84 2.136,-2.4c0.896,-0.56 1.896,-0.84 3,-0.84c0.944,0 1.768,0.192 2.472,0.576c0.72,0.384 1.272,0.888 1.656,1.512l0,-1.896l4.104,0l0,13.392l-4.104,0l0,-1.896c-0.4,0.624 -0.96,1.128 -1.68,1.512c-0.704,0.384 -1.528,0.576 -2.472,0.576c-1.088,0 -2.08,-0.28 -2.976,-0.84c-0.896,-0.576 -1.608,-1.384 -2.136,-2.424c-0.512,-1.056 -0.768,-2.272 -0.768,-3.648zm10.032,0.024c0,-1.024 -0.288,-1.832 -0.864,-2.424c-0.56,-0.592 -1.248,-0.888 -2.064,-0.888c-0.816,0 -1.512,0.296 -2.088,0.888c-0.56,0.576 -0.84,1.376 -0.84,2.4c0,1.024 0.28,1.84 0.84,2.448c0.576,0.592 1.272,0.888 2.088,0.888c0.816,0 1.504,-0.296 2.064,-0.888c0.576,-0.592 0.864,-1.4 0.864,-2.424zm11.057,-0.024c0,-1.376 0.256,-2.584 0.768,-3.624c0.528,-1.04 1.24,-1.84 2.136,-2.4c0.896,-0.56 1.896,-0.84 3,-0.84c0.88,0 1.68,0.184 2.4,0.552c0.736,0.368 1.312,0.864 1.728,1.488l0,-6.216l4.104,0l0,17.76l-4.104,0l0,-1.92c-0.384,0.64 -0.936,1.152 -1.656,1.536c-0.704,0.384 -1.528,0.576 -2.472,0.576c-1.104,0 -2.104,-0.28 -3,-0.84c-0.896,-0.576 -1.608,-1.384 -2.136,-2.424c-0.512,-1.056 -0.768,-2.272 -0.768,-3.648zm10.032,0.024c0,-1.024 -0.288,-1.832 -0.864,-2.424c-0.56,-0.592 -1.248,-0.888 -2.064,-0.888c-0.816,0 -1.512,0.296 -2.088,0.888c-0.56,0.576 -0.84,1.376 -0.84,2.4c0,1.024 0.28,1.84 0.84,2.448c0.576,0.592 1.272,0.888 2.088,0.888c0.816,0 1.504,-0.296 2.064,-0.888c0.576,-0.592 0.864,-1.4 0.864,-2.424zm17.321,6.888c-1.168,0 -2.208,-0.2 -3.12,-0.6c-0.912,-0.4 -1.632,-0.944 -2.16,-1.632c-0.528,-0.704 -0.824,-1.488 -0.888,-2.352l4.056,0c0.048,0.464 0.264,0.84 0.648,1.128c0.384,0.288 0.856,0.432 1.416,0.432c0.512,0 0.904,-0.096 1.176,-0.288c0.288,-0.208 0.432,-0.472 0.432,-0.792c0,-0.384 -0.2,-0.664 -0.6,-0.84c-0.4,-0.192 -1.048,-0.4 -1.944,-0.624c-0.96,-0.224 -1.76,-0.456 -2.4,-0.696c-0.64,-0.256 -1.192,-0.648 -1.656,-1.176c-0.464,-0.544 -0.696,-1.272 -0.696,-2.184c0,-0.768 0.208,-1.464 0.624,-2.088c0.432,-0.64 1.056,-1.144 1.872,-1.512c0.832,-0.368 1.816,-0.552 2.952,-0.552c1.68,0 3,0.416 3.96,1.248c0.976,0.832 1.536,1.936 1.68,3.312l-3.792,0c-0.064,-0.464 -0.272,-0.832 -0.624,-1.104c-0.336,-0.272 -0.784,-0.408 -1.344,-0.408c-0.48,0 -0.848,0.096 -1.104,0.288c-0.256,0.176 -0.384,0.424 -0.384,0.744c0,0.384 0.2,0.672 0.6,0.864c0.416,0.192 1.056,0.384 1.92,0.576c0.992,0.256 1.8,0.512 2.424,0.768c0.624,0.24 1.168,0.64 1.632,1.2c0.48,0.544 0.728,1.28 0.744,2.208c0,0.784 -0.224,1.488 -0.672,2.112c-0.432,0.608 -1.064,1.088 -1.896,1.44c-0.816,0.352 -1.768,0.528 -2.856,0.528z"/>
  <path stroke="null" id="svg_3" d="m3.90114,75.84755l10.50031,0l3.24468,-0.54067l3.24468,0.54067l10.50031,0l-8.49491,0.33415l3.24484,0.54067l-8.49492,-0.33416l-8.49492,0.33416l3.24485,-0.54067l-8.49492,-0.33415z" fill="#222222"/>
  <path stroke="null" id="svg_4" d="m30.35742,34.73943l0.56913,0l0.17587,-0.54067l0.17587,0.54067l0.56913,0l-0.46044,0.33415l0.17588,0.54067l-0.46044,-0.33416l-0.46044,0.33416l0.17588,-0.54067l-0.46044,-0.33415z" fill="#222222"/>
  <path stroke="null" id="svg_5" d="m42.67175,-38.1614l0.56913,0l0.17587,-0.54067l0.17587,0.54067l0.56913,0l-0.46044,0.33415l0.17588,0.54067l-0.46044,-0.33416l-0.46044,0.33416l0.17588,-0.54067l-0.46044,-0.33415z" fill="#222222"/>
  <path stroke="null" id="svg_6" d="m-58.30575,-124.3617l0.56913,0l0.17587,-0.54067l0.17587,0.54067l0.56913,0l-0.46044,0.33415l0.17588,0.54067l-0.46044,-0.33416l-0.46044,0.33416l0.17588,-0.54067l-0.46044,-0.33415z" fill="#222222"/>
  <path stroke="null" id="svg_7" d="m175,-76.93369l-25.33836,0l-7.82975,-0.18909l-7.82975,0.18909l-25.33836,0l20.49913,0.11686l-7.83015,0.18909l20.49914,-0.11687l20.49913,0.11687l-7.83016,-0.18909l20.49913,-0.11686z" fill="#222222"/>
  <path id="svg_14" d="m6.45657,74.21766c-5.33333,0 -7.33333,15.33333 -7.45656,15.11567c0.12323,0.21766 -35.54343,15.55099 -35.87677,15.55099" opacity="NaN" stroke="null" fill="#222222"/>
  <ellipse ry="3.5" rx="6.5" id="svg_13" cy="70.38433" cx="5.2899" stroke="null" fill="#222222"/>
  <path d="m18.7899,13.88433c0,-0.33333 0.2357,-1.09763 0,-1.33333c-0.2357,-0.2357 -1.00749,0.12218 -2,0c-1.36407,-0.16792 -2.96926,-0.49874 -4.33333,-0.66667c-1.98501,-0.24437 -5,0 -6.66667,0c-2,0 -4,0 -4.66667,0l-1,0.66667" id="svg_19" stroke="null" fill="none"/>
  <path d="m12.12323,11.21766c0.33333,0 0.66667,0 1,0c0.66667,0 1.63593,0.49874 3,0.66667c0.66167,0.08146 3.35266,0.05593 5.33333,0.33333c2.40325,0.33659 3,1 3.66667,1l0.33333,0" id="svg_20" stroke="#ffffff" fill="none"/>
  <polyline stroke="#ffffff" stroke-linecap="round" id="svg_21" points="54.12322775544453,3.2176623344421387 58.12322998046875,3.5509955883026123 58.12322998046875,3.884328842163086 " fill="none"/>
  <text transform="matrix(1.24629 0 0 0.953592 -4.18627 -1.69549)" stroke="null" xml:space="preserve" text-anchor="start" font-family="'Andada Pro'" font-size="24" stroke-width="0" id="svg_22" y="20.81101" x="23.91616" fill="#000000">Ido</text>
 </g>
</svg>